<?xml version="1.0" standalone="no"?>
<!DOCTYPE svg PUBLIC "-//W3C//DTD SVG 20010904//EN"
 "http://www.w3.org/TR/2001/REC-SVG-20010904/DTD/svg10.dtd">
<svg version="1.0" xmlns="http://www.w3.org/2000/svg"
 width="1024.000000pt" height="1024.000000pt" viewBox="0 0 1024.000000 1024.000000"
 preserveAspectRatio="xMidYMid meet">

<g transform="translate(0.000000,1024.000000) scale(0.100000,-0.100000)"
fill="#000000" stroke="none">
<path d="M4990 7103 c-81 -12 -170 -36 -170 -44 0 -6 -5 -7 -10 -4 -6 4 -36
-3 -68 -15 -163 -61 -325 -192 -431 -349 -81 -118 -161 -322 -148 -373 3 -10
1 -16 -3 -13 -13 8 -23 -139 -17 -229 15 -203 87 -386 216 -548 129 -164 352
-299 564 -342 95 -20 271 -21 369 -2 354 68 644 331 742 670 16 52 38 103 55
125 48 61 52 91 49 393 l-3 278 -465 -465 -465 -465 -162 0 c-92 0 -163 4
-163 9 0 5 4 11 10 13 5 2 289 282 630 623 596 595 620 621 620 656 0 37 0 37
-50 44 -28 4 -196 6 -373 4 -298 -2 -329 0 -417 19 -89 20 -234 27 -310 15z
m-147 -725 l177 -183 -177 -172 c-98 -94 -180 -170 -181 -168 -8 8 -13 705 -6
705 5 1 89 -81 187 -182z"/>
<path d="M4575 4758 c-3 -7 -4 -213 -3 -458 l3 -445 95 0 95 0 3 458 2 457
-95 0 c-67 0 -97 -4 -100 -12z"/>
<path d="M7450 4310 l0 -460 95 0 95 0 0 141 c0 88 4 139 10 137 5 -1 54 -64
108 -138 l98 -135 107 -3 c60 -1 107 1 107 6 0 6 -56 87 -125 181 -69 95 -125
177 -125 184 0 7 54 73 120 147 66 74 120 138 120 143 0 4 -53 7 -117 7 l-118
-1 -85 -99 c-47 -55 -88 -100 -92 -100 -5 0 -8 101 -8 225 l0 225 -95 0 -95 0
0 -460z"/>
<path d="M2406 4713 c-21 -42 -326 -843 -326 -858 0 -3 46 -4 102 -3 l102 3
29 78 30 77 162 0 163 0 30 -77 29 -78 98 -3 c54 -1 101 1 105 5 7 7 -312 839
-333 871 -5 8 -37 12 -92 12 -82 0 -85 -1 -99 -27z m160 -407 c24 -66 44 -121
44 -123 0 -2 -47 -3 -105 -3 -58 0 -105 2 -105 4 0 5 76 225 92 266 l10 25 10
-25 c5 -14 30 -79 54 -144z"/>
<path d="M5517 4723 c-4 -3 -7 -44 -7 -90 l0 -83 120 0 120 0 2 -347 3 -348
95 0 95 0 3 348 2 347 126 0 125 0 -3 88 -3 87 -336 3 c-184 1 -338 -1 -342
-5z"/>
<path d="M3260 4514 c-25 -9 -54 -22 -64 -30 -17 -12 -21 -11 -31 9 -9 20 -19
22 -98 25 -86 3 -87 2 -97 -24 -6 -16 -9 -187 -8 -457 l3 -432 98 -3 97 -3 0
151 c0 82 2 150 5 150 3 0 29 -12 58 -27 45 -24 63 -28 142 -28 81 0 95 3 143
29 66 37 117 92 150 165 23 47 27 70 27 146 0 78 -4 99 -29 152 -33 73 -95
135 -164 166 -63 27 -172 33 -232 11z m165 -195 c47 -42 67 -81 67 -134 0
-163 -206 -226 -305 -94 -21 29 -33 103 -23 143 8 31 62 95 90 106 12 5 47 9
78 9 50 1 62 -3 93 -30z"/>
<path d="M4060 4510 c-88 -33 -90 -34 -90 -17 0 8 -7 18 -16 21 -23 9 -157 7
-172 -2 -10 -7 -12 -105 -10 -458 l3 -449 98 -3 97 -3 0 151 c0 84 3 150 8
148 97 -50 108 -53 197 -53 81 0 95 3 144 30 114 63 173 170 173 310 0 99 -26
174 -83 238 -83 95 -231 131 -349 87z m160 -182 c58 -40 75 -72 75 -143 0 -71
-17 -103 -75 -142 -42 -29 -116 -31 -170 -3 -52 27 -95 111 -85 169 8 48 45
100 88 124 46 25 126 23 167 -5z"/>
<path d="M6850 4514 c-132 -48 -215 -158 -227 -302 -12 -149 64 -285 192 -344
75 -34 192 -33 261 4 l51 27 12 -25 c11 -24 13 -25 103 -22 l93 3 3 310 c1
171 0 320 -3 333 -5 21 -10 22 -95 22 -77 0 -91 -3 -103 -20 -13 -19 -14 -19
-58 3 -57 28 -166 34 -229 11z m222 -188 c45 -29 72 -83 72 -141 0 -96 -65
-165 -156 -165 -95 0 -162 58 -174 150 -6 53 24 121 67 153 52 38 136 39 191
3z"/>
<path d="M4840 4515 c0 -7 172 -436 221 -553 39 -92 40 -93 23 -128 -20 -43
-48 -63 -96 -70 -35 -6 -38 -10 -62 -76 -14 -38 -26 -71 -26 -73 0 -2 19 -9
43 -16 60 -16 158 -14 193 4 73 38 81 54 306 621 89 224 108 280 97 287 -8 5
-54 8 -104 7 l-90 -3 -71 -210 c-40 -115 -74 -203 -78 -195 -3 8 -31 89 -62
180 -31 91 -62 180 -70 198 l-13 32 -105 0 c-59 0 -106 -2 -106 -5z"/>
<path d="M6187 4513 c-16 -4 -17 -26 -15 -331 l3 -327 95 0 95 0 5 185 c5 201
12 225 70 269 29 21 110 51 139 51 15 0 19 11 25 53 12 107 12 107 -41 107
-41 -1 -101 -17 -165 -44 -13 -6 -20 -2 -28 18 -9 25 -12 26 -87 25 -43 -1
-86 -3 -96 -6z"/>
</g>
</svg>
