<?xml version="1.0" encoding="UTF-8"?>
<svg version="1.1" xmlns="http://www.w3.org/2000/svg" width="1024" height="1024">
<path d="M0 0 C337.92 0 675.84 0 1024 0 C1024 337.92 1024 675.84 1024 1024 C686.08 1024 348.16 1024 0 1024 C0 686.08 0 348.16 0 0 Z " fill="#FEFEFE" transform="translate(0,0)"/>
<path d="M0 0 C8.26881437 4.46481778 13.57362339 10.79695331 18.4375 18.6875 C18.98833252 19.55793945 19.53916504 20.42837891 20.10668945 21.32519531 C21.24864077 23.13261905 22.3851052 24.94352088 23.51611328 26.7578125 C25.11142189 29.3155261 26.72215632 31.86264602 28.33984375 34.40625 C33.40383027 42.37596169 38.40870023 50.3826518 43.40795898 58.39306641 C50.2985689 69.42841436 57.25975307 80.41924458 64.25512695 91.38842773 C75.30779101 108.72287735 86.1988635 126.15774666 96.97680664 143.66430664 C99.10946518 147.12109024 101.24628741 150.55323707 103.55078125 153.8984375 C105.1875 156.4375 105.1875 156.4375 105.1875 158.4375 C106.17642242 158.42861755 107.16534485 158.41973511 108.18423462 158.4105835 C117.51233637 158.32943146 126.84036632 158.26950285 136.16874123 158.23025131 C140.96436929 158.20939309 145.75971196 158.18110772 150.55517578 158.13574219 C155.18470432 158.09222142 159.81395865 158.06834961 164.44367599 158.05799103 C166.20830984 158.05061083 167.97292899 158.03619889 169.73744583 158.01457977 C172.21282409 157.98546238 174.68707518 157.98154739 177.16259766 157.98339844 C177.88908508 157.96901733 178.61557251 157.95463623 179.36407471 157.93981934 C184.44167686 157.98079498 187.26317621 159.27648482 191.1875 162.4375 C194.14161189 165.70754191 196.32250649 169.2003747 198.48828125 173.02734375 C201.98027504 179.10882242 205.64259704 185.06379127 209.375 191 C210.33913818 192.53950317 210.33913818 192.53950317 211.32275391 194.11010742 C214.46333053 199.12022256 217.6177569 204.1211374 220.79296875 209.109375 C221.34637939 209.98005615 221.89979004 210.8507373 222.4699707 211.74780273 C223.50844114 213.37945741 224.54981018 215.00927197 225.59448242 216.63696289 C226.28634644 217.72352173 226.28634644 217.72352173 226.9921875 218.83203125 C227.39421387 219.45956299 227.79624023 220.08709473 228.21044922 220.73364258 C230.5269197 224.77328463 230.67541331 228.90434179 230.1875 233.4375 C228.39399615 237.68527227 226.27004401 239.4110458 222.1875 241.4375 C219.15653992 241.79826355 219.15653992 241.79826355 215.74487305 241.77807617 C214.46392258 241.77784958 213.18297211 241.77762299 211.86320496 241.77738953 C210.47520596 241.76207193 209.08721057 241.74642398 207.69921875 241.73046875 C206.27147366 241.72486926 204.84372278 241.72060083 203.41596985 241.71760559 C199.66921912 241.70618449 195.92282064 241.6767414 192.1762085 241.64349365 C188.34864059 241.61273342 184.52101542 241.59908758 180.69335938 241.58398438 C173.19124616 241.55186861 165.68942255 241.50070597 158.1875 241.4375 C160.10377782 244.63434783 162.02059286 247.83087324 163.9375 251.02734375 C164.47632813 251.92626343 165.01515625 252.82518311 165.5703125 253.75134277 C171.97485511 264.42964838 178.53651807 274.99942557 185.203125 285.51586914 C189.5900285 292.4538819 193.8944419 299.44112269 198.1875 306.4375 C203.30162078 314.76999508 208.45416061 323.07432499 213.68847656 331.33178711 C223.14979561 346.25827117 232.48571704 361.26306273 241.75 376.3125 C242.73178223 377.9068689 242.73178223 377.9068689 243.73339844 379.53344727 C245.556055 382.49866815 247.37362523 385.46690007 249.1875 388.4375 C249.76435547 389.38093262 250.34121094 390.32436523 250.93554688 391.29638672 C251.74282227 392.62694092 251.74282227 392.62694092 252.56640625 393.984375 C253.04021729 394.76393555 253.51402832 395.54349609 254.00219727 396.34667969 C258.3135362 403.95168621 258.44334197 413.7040887 256.25 422.0625 C253.54837961 429.02583144 248.09220981 435.06082727 241.6015625 438.703125 C234.59273927 441.60355247 226.79284346 440.99321745 219.34033203 440.90405273 C216.69369777 440.87506788 214.04906927 440.88347413 211.40234375 440.89648438 C209.69530292 440.89024589 207.98826832 440.88185409 206.28125 440.87109375 C205.50285767 440.87402939 204.72446533 440.87696503 203.92248535 440.87998962 C194.64644006 440.72333665 187.57375104 437.94065705 180.859375 431.5390625 C174.91578933 425.02244055 170.66028986 416.98798404 166.1875 409.4375 C165.40843467 408.13749151 164.62855828 406.83796853 163.84765625 405.5390625 C162.76511552 403.73612073 161.68437905 401.93224939 160.60986328 400.12451172 C157.65985404 395.17285104 154.59214128 390.30139546 151.5 385.4375 C146.39017631 377.3952458 141.41339855 369.27806756 136.47216797 361.13134766 C130.96934642 352.06280663 125.39107839 343.04233683 119.79638672 334.03027344 C117.08968298 329.66833205 114.3888688 325.30274657 111.6875 320.9375 C108.41581423 315.6512561 105.14328967 310.36553954 101.8671875 305.08203125 C95.49595068 294.8044181 89.1496446 284.51256618 82.86279297 274.18310547 C81.21399287 271.48091866 79.55918929 268.78249556 77.90316772 266.08473206 C76.32570952 263.51301805 74.75209527 260.93896415 73.17907715 258.36453247 C72.39538439 257.08369906 71.61015493 255.80380459 70.82336426 254.52487183 C69.71795984 252.72740215 68.61815228 250.92662129 67.51953125 249.125 C66.87733643 248.07699219 66.2351416 247.02898437 65.57348633 245.94921875 C64.1875 243.4375 64.1875 243.4375 64.1875 241.4375 C43.68133635 241.07677889 23.17712909 240.83741204 2.66798115 240.74059582 C-6.85619985 240.69283773 -16.37698405 240.60610642 -25.8996582 240.42602539 C-34.20466497 240.269072 -42.50656464 240.18686986 -50.8131097 240.19260865 C-55.20900948 240.19308173 -59.59759755 240.15738731 -63.99185753 240.03197289 C-81.57899416 238.8355127 -81.57899416 238.8355127 -97.4996376 244.44388199 C-101.83592039 249.28555055 -104.37507212 254.64413971 -106.66078281 260.67601776 C-108.5982856 265.32158492 -111.3735583 269.42763992 -114.125 273.625 C-119.67865565 282.5899828 -125.20054425 291.57432956 -130.72094727 300.55981445 C-135.29805708 308.00070387 -139.91922275 315.41276217 -144.5625 322.8125 C-149.55670611 330.77439964 -154.44796969 338.78825061 -159.25708008 346.86303711 C-165.01922428 356.50884539 -171.01769413 366.00637905 -176.98828125 375.52392578 C-179.75622553 379.94478325 -182.50478935 384.37750235 -185.25 388.8125 C-185.76780029 389.64620117 -186.28560059 390.47990234 -186.8190918 391.33886719 C-189.51426613 395.68637393 -192.18546203 400.04646529 -194.81678772 404.4329834 C-196.21601595 406.76321468 -197.62332679 409.08852038 -199.03103638 411.41363525 C-200.02645238 413.06519118 -201.01039889 414.72364327 -201.99389648 416.38232422 C-208.5823992 427.25263286 -215.07531893 436.44683529 -227.70370483 439.96426392 C-233.4874478 441.26219741 -239.88543809 440.74675988 -245.80029297 440.78759766 C-247.54782482 440.80409907 -249.29529081 440.83131191 -251.04248047 440.86962891 C-262.06466486 441.10964996 -271.20569189 441.29896428 -279.89868164 433.58666992 C-286.30690804 427.23091979 -288.91565935 419.10842786 -289.5625 410.25 C-289.02308589 395.93866928 -277.91166377 382.54909491 -270.41113281 370.93359375 C-267.72344919 366.73706391 -265.11384898 362.49276358 -262.5 358.25 C-257.79565989 350.63017436 -253.06346533 343.0283395 -248.3125 335.4375 C-240.89394802 323.58147934 -233.5270762 311.69398523 -226.18017578 299.79345703 C-219.98637556 289.76093468 -213.76510987 279.74843331 -207.45140076 269.79086304 C-203.57384609 263.66612245 -199.74819475 257.51026452 -195.9375 251.34375 C-195.34453125 250.38500977 -194.7515625 249.42626953 -194.140625 248.43847656 C-192.69751717 246.10506431 -191.25481531 243.77140217 -189.8125 241.4375 C-190.59875259 241.45082367 -191.38500519 241.46414734 -192.19508362 241.47787476 C-199.62447558 241.59836824 -207.05339025 241.68958272 -214.4835062 241.74837303 C-218.30298795 241.77961498 -222.12165876 241.82195282 -225.94067383 241.89013672 C-229.63009989 241.95559066 -233.31874876 241.99125968 -237.00871086 242.00676346 C-238.41254848 242.01780378 -239.81634612 242.03936406 -241.21985054 242.07188034 C-253.58301458 242.34677619 -253.58301458 242.34677619 -258.16772461 238.58837891 C-261.01863241 235.67435232 -261.74618452 233.24674109 -262.08203125 229.1484375 C-261.77180981 224.87727275 -260.70427146 222.71125396 -258.5 219.0625 C-257.96584473 218.16857544 -257.96584473 218.16857544 -257.42089844 217.2565918 C-253.67788427 211.05952201 -249.70958348 204.99881508 -245.74609375 198.94140625 C-242.65979546 194.21892287 -239.63668053 189.45781915 -236.625 184.6875 C-236.12049316 183.89182617 -235.61598633 183.09615234 -235.09619141 182.27636719 C-232.84131062 178.70903205 -230.61489656 175.13377454 -228.48828125 171.48828125 C-228.13725342 170.89305664 -227.78622559 170.29783203 -227.42456055 169.68457031 C-226.51413779 168.13079415 -225.61959915 166.56773984 -224.7265625 165.00390625 C-222.36902895 161.84288678 -220.27163897 160.34812811 -216.8125 158.4375 C-213.99727519 158.07721669 -211.59016079 157.9279206 -208.78759766 157.98339844 C-208.00643585 157.98281433 -207.22527405 157.98223022 -206.42044067 157.98162842 C-203.85535215 157.98440053 -201.29144634 158.01544967 -198.7265625 158.046875 C-196.9415246 158.05434053 -195.15647848 158.06003199 -193.37142944 158.06402588 C-188.68590445 158.0792577 -184.00087982 158.11851816 -179.31555176 158.1628418 C-174.5294471 158.20384757 -169.74326115 158.22204821 -164.95703125 158.2421875 C-155.57530167 158.28501496 -146.19394253 158.3532364 -136.8125 158.4375 C-136.50408173 157.65206818 -136.19566345 156.86663635 -135.87789917 156.05740356 C-134.94300768 153.75842905 -133.93034766 151.78559657 -132.6328125 149.6796875 C-132.20508545 148.98198242 -131.7773584 148.28427734 -131.33666992 147.56542969 C-130.87494385 146.82196289 -130.41321777 146.07849609 -129.9375 145.3125 C-129.45063721 144.52262695 -128.96377441 143.73275391 -128.4621582 142.91894531 C-120.11203921 129.40618287 -111.55341453 116.02406307 -103.02197266 102.62548828 C-94.07722606 88.57507934 -85.20646701 74.47990205 -76.38574219 60.35131836 C-72.00059556 53.33025133 -67.60398496 46.3166644 -63.16674805 39.32836914 C-60.65288478 35.36747685 -58.16616671 31.39297939 -55.71875 27.390625 C-42.94714676 6.60188425 -26.65534309 -9.80715453 0 0 Z " fill="#049DAD" transform="translate(527.8125,294.5625)"/>
<path d="M0 0 C0.70749756 -0.0034177 1.41499511 -0.0068354 2.14393198 -0.01035666 C4.50267439 -0.01691889 6.86026594 0.00501135 9.21890259 0.0269165 C10.91434706 0.02804535 12.60979348 0.0274104 14.30523682 0.02514648 C18.89994821 0.02399985 23.49424105 0.04750098 28.08885527 0.07544231 C32.89346406 0.10046435 37.69808268 0.1027986 42.50274658 0.10754395 C51.5974596 0.11997135 60.69198007 0.15278982 69.78660834 0.1929419 C80.14202507 0.23766688 90.49745104 0.25964849 100.85294032 0.27972364 C122.15163023 0.32152263 143.45014685 0.39187017 164.74868774 0.48101807 C163.96687706 4.01749346 162.72281937 6.17612442 160.56118774 9.10601807 C156.9361966 14.03207827 153.85256406 19.21845999 150.74868774 24.48101807 C150.18029175 25.44346436 149.61189575 26.40591064 149.02627563 27.39752197 C147.79882168 29.47772116 146.5718729 31.55821849 145.34536743 33.63897705 C138.5053701 45.23292499 131.5528852 56.74631734 124.47207642 68.19537354 C120.49120617 74.63546297 116.5606308 81.10141164 112.68618774 87.60601807 C107.72464864 95.92702053 102.6067847 104.14410032 97.45547485 112.34869385 C93.16358934 119.19276234 88.93481146 126.07181288 84.74868774 132.98101807 C80.04053425 140.75049729 75.26746299 148.47501674 70.43618774 156.16851807 C64.96000226 164.89154421 59.57824512 173.66801991 54.24868774 182.48101807 C47.10673699 194.28932363 39.82696526 206.00672902 32.49234009 217.6963501 C29.75112678 222.07415449 27.02985787 226.46419109 24.31118774 230.85601807 C23.53388306 232.10753662 23.53388306 232.10753662 22.74087524 233.38433838 C20.04611766 237.73119979 17.37533061 242.090642 14.74440002 246.47650146 C13.34517179 248.80673275 11.93786095 251.13203844 10.53015137 253.45715332 C9.53473536 255.10870925 8.55078886 256.76716134 7.56729126 258.42584229 C0.97878854 269.29615092 -5.51413118 278.49035336 -18.14251709 282.00778198 C-23.92626006 283.30571547 -30.32425035 282.79027795 -36.23910522 282.83111572 C-37.98663708 282.84761713 -39.73410307 282.87482997 -41.48129272 282.91314697 C-52.50347712 283.15316803 -61.64450415 283.34248234 -70.3374939 275.63018799 C-76.7457203 269.27443785 -79.35447161 261.15194593 -80.00131226 252.29351807 C-79.46189814 237.98218735 -68.35047603 224.59261297 -60.84994507 212.97711182 C-58.16226144 208.78058198 -55.55266124 204.53628165 -52.93881226 200.29351807 C-48.23447215 192.67369242 -43.50227759 185.07185757 -38.75131226 177.48101807 C-31.33276028 165.62499741 -23.96588846 153.7375033 -16.61898804 141.8369751 C-10.42518782 131.80445274 -4.20392213 121.79195138 2.10978699 111.8343811 C5.98734165 105.70964051 9.81299299 99.55378259 13.62368774 93.38726807 C14.21665649 92.42852783 14.80962524 91.4697876 15.42056274 90.48199463 C16.86367057 88.14858238 18.30637244 85.81492024 19.74868774 83.48101807 C18.56930885 83.50100357 18.56930885 83.50100357 17.36610413 83.52139282 C9.93671217 83.6418863 2.5077975 83.73310079 -4.92231846 83.7918911 C-8.7418002 83.82313305 -12.56047101 83.86547088 -16.37948608 83.93365479 C-20.06891215 83.99910873 -23.75756102 84.03477774 -27.44752312 84.05028152 C-28.85136074 84.06132185 -30.25515838 84.08288212 -31.6586628 84.11539841 C-44.02182684 84.39029425 -44.02182684 84.39029425 -48.60653687 80.63189697 C-51.45744467 77.71787038 -52.18499677 75.29025916 -52.52084351 71.19195557 C-52.21062207 66.92079081 -51.14308371 64.75477202 -48.93881226 61.10601807 C-48.58270874 60.51006836 -48.22660522 59.91411865 -47.85971069 59.30010986 C-44.11669652 53.10304008 -40.14839573 47.04233315 -36.18490601 40.98492432 C-33.09860771 36.26244094 -30.07549279 31.50133721 -27.06381226 26.73101807 C-26.55930542 25.93534424 -26.05479858 25.13967041 -25.53500366 24.31988525 C-23.28012288 20.75255012 -21.05370881 17.1772926 -18.92709351 13.53179932 C-18.57606567 12.93657471 -18.22503784 12.3413501 -17.8633728 11.72808838 C-16.95295005 10.17431222 -16.05841141 8.6112579 -15.16537476 7.04742432 C-11.02513126 1.49611824 -6.77283332 -0.0197747 0 0 Z " fill="#024975" transform="translate(318.2513122558594,452.51898193359375)"/>
<path d="M0 0 C8.26881437 4.46481778 13.57362339 10.79695331 18.4375 18.6875 C18.98833252 19.55793945 19.53916504 20.42837891 20.10668945 21.32519531 C21.24864077 23.13261905 22.3851052 24.94352088 23.51611328 26.7578125 C25.11142189 29.3155261 26.72215632 31.86264602 28.33984375 34.40625 C33.40383027 42.37596169 38.40870023 50.3826518 43.40795898 58.39306641 C50.2985689 69.42841436 57.25975307 80.41924458 64.25512695 91.38842773 C72.3109882 104.0228406 80.27156109 116.71500634 88.1875 129.4375 C88.80141602 130.42363281 89.41533203 131.40976562 90.04785156 132.42578125 C91.82539837 135.28272183 93.60072009 138.14102961 95.375 141 C95.90359619 141.85021729 96.43219238 142.70043457 96.97680664 143.57641602 C99.80834894 148.14761671 102.55154426 152.75065745 105.1875 157.4375 C103.42059441 159.20440559 100.88761513 158.56364918 98.49328613 158.56448364 C96.63807091 158.56871338 96.63807091 158.56871338 94.74537659 158.57302856 C93.36215196 158.57108397 91.97892747 158.56903578 90.59570312 158.56689453 C89.14892025 158.56824853 87.70213771 158.57002845 86.25535583 158.57220459 C82.31538238 158.57677909 78.37543498 158.5749893 74.43546104 158.5718255 C70.32127179 158.56930199 66.20708484 158.57163942 62.09289551 158.57321167 C55.18253171 158.57503339 48.27217858 158.57262699 41.36181641 158.56787109 C33.36100233 158.56242847 25.36021373 158.56419112 17.35940027 158.5696975 C10.50251881 158.57422856 3.64564504 158.57487921 -3.21123743 158.57225883 C-7.31200739 158.57069602 -11.41276535 158.57050241 -15.51353455 158.57379532 C-19.36792639 158.57667393 -23.22228524 158.57469853 -27.07667351 158.56890106 C-28.49530418 158.56757341 -29.91393762 158.56796767 -31.33256721 158.57016373 C-33.26113921 158.57287499 -35.18971724 158.56888062 -37.11828613 158.56448364 C-38.20009407 158.56410662 -39.28190201 158.56372959 -40.396492 158.56334114 C-42.8125 158.4375 -42.8125 158.4375 -43.8125 157.4375 C-46.64290672 157.34229094 -49.44884993 157.31196369 -52.27954102 157.32397461 C-53.16726196 157.32382858 -54.05498291 157.32368256 -54.96960449 157.3235321 C-57.91856284 157.32423157 -60.86745887 157.33202552 -63.81640625 157.33984375 C-65.85521917 157.34170781 -67.89403254 157.34313177 -69.93284607 157.34413147 C-75.31034574 157.34795759 -80.68781858 157.35778868 -86.06530762 157.36883545 C-91.54809201 157.37904755 -97.03088072 157.38362866 -102.51367188 157.38867188 C-113.27995973 157.39941086 -124.04622764 157.41648841 -134.8125 157.4375 C-133.70778426 155.35102392 -132.59918805 153.26677042 -131.48828125 151.18359375 C-130.56269409 149.44227173 -130.56269409 149.44227173 -129.6184082 147.66577148 C-128.19268193 145.11711952 -126.75389586 142.82189857 -125 140.5 C-122.73140093 137.66737835 -122.73140093 137.66737835 -122.015625 134.828125 C-120.3790685 130.21601121 -117.92379732 126.28720843 -115.375 122.125 C-114.84003906 121.24271729 -114.30507813 120.36043457 -113.75390625 119.45141602 C-109.4851922 112.44868626 -105.06326575 105.55285332 -100.578125 98.6875 C-92.31922332 86.03556551 -84.38758173 73.16810372 -76.38647461 60.35253906 C-72.00112633 53.33103868 -67.60423919 46.31706481 -63.16674805 39.32836914 C-60.65288478 35.36747685 -58.16616671 31.39297939 -55.71875 27.390625 C-42.94714676 6.60188425 -26.65534309 -9.80715453 0 0 Z " fill="#03D0CB" transform="translate(527.8125,294.5625)"/>
<path d="M0 0 C27.06 0 54.12 0 82 0 C82 59.4 82 118.8 82 180 C54.94 180 27.88 180 0 180 C0 120.6 0 61.2 0 0 Z " fill="#0492A9" transform="translate(471,555)"/>
<path d="M0 0 C0.77140823 -0.00058411 1.54281647 -0.00116821 2.33760071 -0.00177002 C4.87022974 0.00100172 7.40166035 0.0320489 9.93408203 0.06347656 C11.6966996 0.07094223 13.45932549 0.07663362 15.22195435 0.08062744 C19.8482986 0.09585819 24.47413598 0.13511767 29.10028076 0.17944336 C33.82606145 0.22045149 38.55192449 0.23865027 43.27783203 0.25878906 C52.54107487 0.30161462 61.80394245 0.36983471 71.06689453 0.45410156 C70.43852434 1.89869876 69.80686791 3.3418668 69.17382812 4.78442383 C68.82242767 5.5882399 68.47102722 6.39205597 68.10897827 7.2202301 C66.88775369 9.83811831 65.42183224 12.08095707 63.69189453 14.39160156 C60.82331116 18.35182343 58.25569524 22.38032489 55.77392578 26.59082031 C53.70927511 30.05395291 51.58123219 33.47425599 49.44189453 36.89160156 C49.02004883 37.56586182 48.59820312 38.24012207 48.16357422 38.93481445 C45.81004194 42.690275 43.44513248 46.43831967 41.07080078 50.18066406 C40.04857473 51.79258575 39.02643961 53.40456512 38.00439453 55.01660156 C37.24811768 56.20878296 37.24811768 56.20878296 36.4765625 57.42504883 C32.88509888 63.10658838 29.39010424 68.83888041 26.00805664 74.64770508 C23.9267937 78.18296636 21.92470102 81.50264063 19.06689453 84.45410156 C16.20329285 85.05778503 16.20329285 85.05778503 12.84887695 85.02514648 C11.59044479 85.02411423 10.33201263 85.02308197 9.03544617 85.02201843 C7.66438927 84.99427996 6.29336099 84.96509462 4.92236328 84.93457031 C3.50996909 84.91801886 2.09755811 84.90284723 0.68513489 84.88899231 C-2.27514371 84.85393343 -5.23435892 84.8001774 -8.1940918 84.73364258 C-11.9735259 84.65044653 -15.75150912 84.61648491 -19.53174305 84.59710217 C-22.45000536 84.57611539 -25.36730859 84.52720793 -28.28507042 84.47023964 C-29.67749573 84.44664567 -31.07010242 84.43192399 -32.46271706 84.42650414 C-44.67545036 84.3545868 -44.67545036 84.3545868 -49.27954102 80.58032227 C-52.14600919 77.67785914 -52.86648543 75.26705912 -53.20263672 71.16503906 C-52.89241528 66.89387431 -51.82487693 64.72785552 -49.62060547 61.07910156 C-49.26450195 60.48315186 -48.90839844 59.88720215 -48.54150391 59.27319336 C-44.79848974 53.07612357 -40.83018895 47.01541664 -36.86669922 40.95800781 C-33.78040092 36.23552443 -30.757286 31.47442071 -27.74560547 26.70410156 C-27.24109863 25.90842773 -26.7365918 25.11275391 -26.21679688 24.29296875 C-23.96191609 20.72563361 -21.73550203 17.1503761 -19.60888672 13.50488281 C-19.25785889 12.9096582 -18.90683105 12.31443359 -18.54516602 11.70117188 C-17.63474326 10.14739572 -16.74020462 8.5843414 -15.84716797 7.02050781 C-11.55940053 1.27139923 -6.92092774 -0.13878885 0 0 Z " fill="#06A0AE" transform="translate(318.93310546875,452.5458984375)"/>
<path d="M0 0 C3.38297674 1.391748 4.7828982 2.74666819 6.59375 5.90234375 C7.06127686 6.70164307 7.52880371 7.50094238 8.01049805 8.32446289 C8.50203369 9.18676514 8.99356934 10.04906738 9.5 10.9375 C10.5564382 12.74865488 11.61509478 14.55851731 12.67578125 16.3671875 C13.49103271 17.7608252 13.49103271 17.7608252 14.32275391 19.18261719 C17.50724371 24.5318184 20.88269159 29.76105254 24.25390625 34.99389648 C24.73085938 35.73969971 25.2078125 36.48550293 25.69921875 37.25390625 C26.12033936 37.90689697 26.54145996 38.5598877 26.9753418 39.23266602 C28 41 28 41 29 44 C10.85 44 -7.3 44 -26 44 C-24.32305056 38.96915167 -22.44859249 35.17508255 -19.625 30.8125 C-19.19380859 30.13485596 -18.76261719 29.45721191 -18.31835938 28.7590332 C-17.38425053 27.29126651 -16.4476297 25.82509613 -15.50878906 24.36035156 C-13.358684 20.99672441 -11.23411763 17.61716485 -9.10693359 14.23901367 C-7.5627143 11.78707872 -6.01688991 9.33618005 -4.46875 6.88671875 C-4.04013672 6.20826904 -3.61152344 5.52981934 -3.16992188 4.83081055 C-2.13283702 3.20787664 -1.0683502 1.6025253 0 0 Z " fill="#F6FCFD" transform="translate(511,409)"/>
<path d="M0 0 C0.33 0.99 0.66 1.98 1 3 C-0.29296875 5.19921875 -0.29296875 5.19921875 -2.1875 7.6875 C-5.34318484 11.9832626 -7.72636279 16.19038283 -10 21 C-10.33 21.33 -10.66 21.66 -11 22 C19.03 22 49.06 22 80 22 C80 22.66 80 23.32 80 24 C98.15 24 116.3 24 135 24 C135 24.33 135 24.66 135 25 C99.66226526 25.15301797 64.33534808 24.8971872 29 24.5 C27.93586002 24.48804218 26.87172005 24.47608437 25.7753334 24.46376419 C12.51682778 24.31430367 -0.74161266 24.1595974 -14 24 C-12.69714258 20.66807693 -11.3097052 17.65826887 -9.43359375 14.609375 C-8.94826172 13.81789063 -8.46292969 13.02640625 -7.96289062 12.2109375 C-7.45951172 11.39882813 -6.95613281 10.58671875 -6.4375 9.75 C-5.93025391 8.92242187 -5.42300781 8.09484375 -4.90039062 7.2421875 C-1.15051972 1.15051972 -1.15051972 1.15051972 0 0 Z " fill="#18B2B8" transform="translate(405,429)"/>
<path d="M0 0 C0.33 0.99 0.66 1.98 1 3 C-0.29296875 5.19921875 -0.29296875 5.19921875 -2.1875 7.6875 C-5.34318484 11.9832626 -7.72636279 16.19038283 -10 21 C-10.33 21.33 -10.66 21.66 -11 22 C4.84 22.33 20.68 22.66 37 23 C37 23.33 37 23.66 37 24 C20.17 24 3.34 24 -14 24 C-12.59378507 20.48446267 -11.37056365 17.75717076 -9.43359375 14.609375 C-8.94826172 13.81789063 -8.46292969 13.02640625 -7.96289062 12.2109375 C-7.45951172 11.39882813 -6.95613281 10.58671875 -6.4375 9.75 C-5.93025391 8.92242187 -5.42300781 8.09484375 -4.90039062 7.2421875 C-1.15051972 1.15051972 -1.15051972 1.15051972 0 0 Z " fill="#0AB5BB" transform="translate(405,429)"/>
<path d="M0 0 C0.33 0.99 0.66 1.98 1 3 C-0.29296875 5.19921875 -0.29296875 5.19921875 -2.1875 7.6875 C-4.54101955 10.87689257 -6.55068929 13.88977637 -8.1875 17.5 C-10.05400706 21.10428949 -10.50020629 21.55081006 -14 23 C-9.81825938 14.95331729 -5.13523141 7.46824263 0 0 Z " fill="#2DC2BF" transform="translate(405,429)"/>
<path d="M0 0 C-1.4310782 3.39135719 -3.17065183 5.23764957 -6 7.5625 C-8.55772463 9.67356316 -10.133135 11.19970251 -12 14 C-12.66 14 -13.32 14 -14 14 C-12.53772206 8.63831423 -6.08760693 0 0 0 Z " fill="#2DE5D9" transform="translate(495,296)"/>
<path d="M0 0 C0.33 0.99 0.66 1.98 1 3 C0.109375 4.6484375 0.109375 4.6484375 -1.25 6.375 C-3.37086242 9.15752423 -5.25125219 11.96270117 -7 15 C-7.66 14.67 -8.32 14.34 -9 14 C-6.03 9.38 -3.06 4.76 0 0 Z " fill="#29C4C3" transform="translate(415,413)"/>
<path d="M0 0 C1.9375 0.8125 1.9375 0.8125 4 2 C4.33 2.99 4.66 3.98 5 5 C4.34 5 3.68 5 3 5 C3 4.34 3 3.68 3 3 C1.35 3.66 -0.3 4.32 -2 5 C-1.34 3.35 -0.68 1.7 0 0 Z " fill="#D3F2F2" transform="translate(511,409)"/>
</svg>
