<?xml version="1.0" encoding="UTF-8"?>
<svg version="1.1" xmlns="http://www.w3.org/2000/svg" width="1024" height="1024">
<path d="M0 0 C337.92 0 675.84 0 1024 0 C1024 337.92 1024 675.84 1024 1024 C686.08 1024 348.16 1024 0 1024 C0 686.08 0 348.16 0 0 Z " fill="#FEFEFE" transform="translate(0,0)"/>
<path d="M0 0 C38.94 0 77.88 0 118 0 C117.01 5.28 116.02 10.56 115 16 C113.66781034 41.9776983 120.64094884 65.64523558 138.25 85.25 C152.08643006 100.00773908 168.69580572 107.41022739 188 112 C188.81726563 112.20367187 189.63453125 112.40734375 190.4765625 112.6171875 C213.48526568 116.10767188 238.04857516 109.53034748 256.8046875 95.97265625 C275.33913228 81.36587082 289.07364016 59.74853566 292 36 C292.16321752 32.39484562 292.18507334 28.79594281 292.1875 25.1875 C292.19974609 24.24068359 292.21199219 23.29386719 292.22460938 22.31835938 C292.23559789 16.99625338 291.8297233 12.2074144 290.4309082 7.0637207 C290 5 290 5 290 0 C327.95 0 365.9 0 405 0 C405 35.64 405 71.28 405 108 C356.49 108 307.98 108 258 108 C258 212.94 258 317.88 258 426 C221.7 426 185.4 426 148 426 C148 321.06 148 216.12 148 108 C99.16 108 50.32 108 0 108 C0 72.36 0 36.72 0 0 Z " fill="#024A3C" transform="translate(461,330)"/>
<path d="M0 0 C19.14 0 38.28 0 58 0 C61 8 61 8 62.03515625 11.0625 C70.15343675 34.275226 86.24674339 51.01520633 108 62 C129.638472 72.00097446 153.35902619 72.87188183 175.6875 64.75 C185.76286602 60.57271334 194.7966954 55.64343948 203.07421875 48.50390625 C205 47 205 47 207 47 C207.45246094 48.07507813 207.90492188 49.15015625 208.37109375 50.2578125 C214.48667095 64.69119243 220.88943938 78.99143447 227.32202148 93.28564453 C227.8720005 94.50973022 227.8720005 94.50973022 228.43309021 95.75854492 C229.12904391 97.30729846 229.82622185 98.85550262 230.52479553 100.40307617 C235.88797293 112.34193923 235.49917268 126.68011777 231 139 C223.10829465 155.8949185 210.50391937 169.07136525 193 176 C185.79204353 178.17690685 178.78819831 178.26335386 171.30859375 178.1953125 C170.12274185 178.1924826 168.93688995 178.18965271 167.71510315 178.18673706 C163.95579616 178.17560994 160.19673407 178.15051898 156.4375 178.125 C153.87695658 178.11496056 151.31640941 178.1058364 148.75585938 178.09765625 C142.50382376 178.07569508 136.25192939 178.04229234 130 178 C125.17855452 167.70020258 120.39728192 157.38243024 115.64819336 147.04907227 C114.56802225 144.69951186 113.48617834 142.35072637 112.40429688 140.00195312 C111.68739697 138.4427557 110.97059693 136.88351235 110.25390625 135.32421875 C109.79099937 134.32016243 109.79099937 134.32016243 109.31874084 133.29582214 C105.46470745 124.89894288 101.75320348 116.44470784 98 108 C52.46 108 6.92 108 -40 108 C-51.33739746 132.93722366 -51.33739746 132.93722366 -62.65625 157.8828125 C-65.72237086 164.61093354 -68.86615245 171.30323971 -72 178 C-79.59468981 178.10218396 -87.18919958 178.17179205 -94.78442383 178.21972656 C-97.36326726 178.23972885 -99.942066 178.26693956 -102.52075195 178.30175781 C-106.24702039 178.35077817 -109.97268447 178.37308374 -113.69921875 178.390625 C-114.8351799 178.41127014 -115.97114105 178.43191528 -117.14152527 178.45318604 C-133.06660001 178.45755935 -146.96210213 172.39091496 -158.3125 161.3125 C-168.1758735 151.22283701 -173.95909672 138.94913026 -176 125 C-176.17144531 123.95328125 -176.34289062 122.9065625 -176.51953125 121.828125 C-177.54891945 109.2558638 -172.37299876 99.81537529 -166.85057068 88.7855835 C-163.15193834 81.37265266 -159.75984427 73.81943439 -156.33935547 66.27529907 C-154.59307323 62.42751957 -152.8350049 58.58513637 -151.078125 54.7421875 C-150.4781015 53.42826311 -149.87815723 52.11430254 -149.27832031 50.80029297 C-148.85647461 49.87619629 -148.43462891 48.95209961 -148 48 C-144.9790116 49.46641516 -142.43634444 51.10554526 -139.75 53.125 C-128.01716029 61.36551352 -115.9605077 66.09975368 -102 69 C-101.34902344 69.1750708 -100.69804687 69.3501416 -100.02734375 69.53051758 C-81.4827393 73.82498703 -58.31826002 67.43789525 -42.40893555 57.82250977 C-35.68556652 53.54483868 -29.63542022 48.63542022 -24 43 C-23.06607422 42.06607422 -23.06607422 42.06607422 -22.11328125 41.11328125 C-11.23031035 29.44771469 -5.36869137 14.76390126 0 0 Z " fill="#02493C" transform="translate(338,577)"/>
<path d="M0 0 C0.66 0 1.32 0 2 0 C3.74173798 3.74949953 5.48326255 7.4990981 7.22460938 11.2487793 C7.81407234 12.51801069 8.40358851 13.78721738 8.99316406 15.05639648 C9.27643555 15.66620361 9.55970703 16.27601074 9.8515625 16.90429688 C10.1352066 17.514673 10.41885071 18.12504913 10.71109009 18.75392151 C11.28628118 19.99340672 11.86030781 21.23343295 12.43319702 22.47398376 C13.83044542 25.49754296 15.24546066 28.50836325 16.69384766 31.50805664 C19.63367337 37.65411018 21.94321131 43.35118423 23.125 50.0625 C25.37064319 62.12449439 29.80995482 73.37202062 34.3125 84.75 C34.55433014 85.3625061 34.79616028 85.97501221 35.0453186 86.6060791 C40.16018989 99.55007573 45.50659376 112.25602909 51.81811523 124.66455078 C54.13793201 129.23156971 56.34598967 133.84054065 58.51293945 138.48193359 C65.40466274 153.20658256 73.18400225 167.38371695 81.28515625 181.47265625 C81.6501825 182.10818924 82.01520874 182.74372223 82.39129639 183.39851379 C84.19706698 186.54064745 86.00899679 189.67892457 87.83251953 192.81079102 C88.48978027 193.94830811 89.14704102 195.0858252 89.82421875 196.2578125 C90.41291748 197.2698877 91.00161621 198.28196289 91.6081543 199.32470703 C92.79833874 201.61238308 93.53743794 203.48231406 94 206 C93.01902344 206.32871094 92.03804687 206.65742188 91.02734375 206.99609375 C66.68389722 215.44618677 48.34426384 230.30712539 36.5625 253.4375 C34.60435473 257.58122385 32.73530547 261.75814219 31 266 C28.4470903 262.85846605 26.78540412 259.65479406 25.109375 255.9765625 C24.56812988 254.79739258 24.02688477 253.61822266 23.46923828 252.40332031 C23.1882428 251.78573853 22.90724731 251.16815674 22.61773682 250.53186035 C21.16388737 247.33701162 19.69540954 244.14891271 18.2265625 240.9609375 C17.9417099 240.34202637 17.6568573 239.72311523 17.3633728 239.08544922 C15.36699554 234.76043939 13.29066781 230.49233558 11.125 226.25 C7.41530208 218.97936397 4.20570855 211.50272213 1 204 C-1.25557026 207.38335539 -2.98085715 210.92679689 -4.74609375 214.578125 C-5.11353195 215.33392349 -5.48097015 216.08972198 -5.85954285 216.86842346 C-7.05441532 219.32787833 -8.2460427 221.78888912 -9.4375 224.25 C-10.25362738 225.93194111 -11.06987117 227.61382574 -11.88623047 229.2956543 C-17.97167621 241.84103124 -24.01651684 254.40563542 -30 267 C-32.69747364 264.30252636 -33.7038347 261.09673809 -35.125 257.625 C-45.91644211 232.24776054 -65.09954712 217.55188254 -90 207.5 C-91.3304336 206.99233455 -92.66248616 206.48870698 -94 206 C-93.43510547 201.64172376 -92.36374949 198.18210212 -90.47265625 194.22265625 C-89.93697021 193.08940918 -89.40128418 191.95616211 -88.84936523 190.78857422 C-88.5595578 190.18430603 -88.26975037 189.58003784 -87.97116089 188.9574585 C-86.71134841 186.33019414 -85.46827782 183.69511229 -84.22395325 181.06048584 C-83.55061455 179.63516899 -82.87643015 178.2102514 -82.20146179 176.78570557 C-78.44123784 168.84320343 -74.76511937 160.86227479 -71.09066772 152.87982178 C-69.17063288 148.70927053 -67.24735657 144.54021482 -65.32421875 140.37109375 C-64.95240982 139.56492615 -64.58060089 138.75875854 -64.19752502 137.92816162 C-56.19700598 120.58464085 -48.13042571 103.27191019 -40.04626465 85.96725464 C-36.00806074 77.32195853 -31.99232767 68.66659743 -28 60 C-18.76503788 39.95443505 -9.42293034 19.95788352 0 0 Z " fill="#024A3C" transform="translate(367,269)"/>
<path d="M0 0 C11.9867205 9.41030649 21.59998518 21.52965737 23.5625 37.01171875 C24.69871492 55.62213547 20.35258948 71.13600738 7.98046875 85.5390625 C-1.44207012 95.17471211 -14.35675774 101.85252765 -27.8984375 102.3125 C-29.86974253 102.32695624 -31.84115252 102.33066949 -33.8125 102.32421875 C-35.27816406 102.34838867 -35.27816406 102.34838867 -36.7734375 102.37304688 C-50.87220191 102.38242105 -64.22563972 96.77569042 -74.4375 87.01171875 C-85.43285974 74.57344635 -90.59412263 62.17279192 -90.6875 45.76171875 C-90.7184375 44.42560547 -90.7184375 44.42560547 -90.75 43.0625 C-90.83310654 28.74739924 -84.65720654 16.65469423 -74.92578125 6.3671875 C-54.14054036 -13.30863708 -23.89939785 -16.39527144 0 0 Z " fill="#024A3C" transform="translate(698.4375,308.98828125)"/>
<path d="M0 0 C17.22683031 8.80996288 26.36155122 19.85240491 33.796875 37.60546875 C38.16074054 51.53269919 34.19611047 66.81337344 27.87841797 79.35009766 C21.75756505 90.75069813 11.83910639 99.56199126 -0.08984375 104.48828125 C-0.98960937 104.86210938 -1.889375 105.2359375 -2.81640625 105.62109375 C-17.48854228 110.93277844 -33.00583052 110.06509836 -47.08984375 103.48828125 C-62.15666523 95.46474499 -71.46444223 83.30725119 -77.18359375 67.45703125 C-81.51286628 52.54509253 -79.29215232 38.48444004 -72.40234375 24.80078125 C-57.99702171 -0.00236722 -26.77412532 -11.5489848 0 0 Z " fill="#024A3C" transform="translate(272.08984375,507.51171875)"/>
<path d="M0 0 C1.01602295 0.01015137 2.0320459 0.02030273 3.07885742 0.03076172 C20.40160487 0.38896232 31.42276444 6.34448682 43.6875 18.375 C44.265 18.92800781 44.8425 19.48101563 45.4375 20.05078125 C56.12408767 31.26613237 58.38890724 46.53598205 58.0625 61.31640625 C57.27990804 76.25552775 48.88282375 89.08848406 38.2734375 99.15625 C25.72432033 109.92346836 10.91417388 113.71820586 -5.27636719 112.56689453 C-20.20529471 111.15992366 -33.67316965 103.51436081 -43.2421875 92.06640625 C-53.49727984 78.3122588 -56.69743296 63.1677549 -55.3125 46.375 C-52.8619893 32.44964278 -45.25891168 20.22434097 -34.3125 11.375 C-23.43982311 3.8460523 -13.23801145 -0.19050649 0 0 Z " fill="#024A3C" transform="translate(482.3125,503.625)"/>
<path d="M0 0 C37.62 0 75.24 0 114 0 C114 0.33 114 0.66 114 1 C113.43070109 1.00238835 112.86140219 1.00477671 112.2748518 1.00723743 C98.42898858 1.06634751 84.58330215 1.1420614 70.73762798 1.23571491 C64.04197367 1.28050102 57.34638827 1.32010818 50.65063477 1.34643555 C44.19257328 1.37238628 37.7347494 1.41273019 31.27683449 1.46318626 C28.80923219 1.47991078 26.34158874 1.49139013 23.87393761 1.49761391 C20.42571291 1.50719424 16.97810382 1.53518113 13.5300293 1.56762695 C12.50288315 1.56619186 11.475737 1.56475677 10.41746521 1.5632782 C9.47937012 1.57581635 8.54127502 1.58835449 7.57475281 1.60127258 C6.35107262 1.60818603 6.35107262 1.60818603 5.10267162 1.61523914 C2.52989325 2.08602326 1.63581943 3.01251331 0 5 C0 3.35 0 1.7 0 0 Z " fill="#135244" transform="translate(751,330)"/>
</svg>
